# xmcd CD database file
#
# Track frame offsets:
#	182
#	23527
#	47832
#	63870
#	86415
#	103650
#	119657
#	135735
#	152082
#
# Disc length: 2401 seconds
#
# Revision: 0
# Processed by: cddbd v1.5.2PL0 Copyright (c) Steve Scherf et al.
# Submitted via: CDex 1.51
#
DISCID=6f095f09
DTITLE=Dankworth, John - Lifeline
DYEAR=1973
DGENRE=Jazz
TTITLE0=Fighting the Flab
TTITLE1=Darlington
TTITLE2=Tomorrow's World
TTITLE3=WRVR
TTITLE4=Lifeline Suite: Orinoco
TTITLE5=Lifeline Suite: Studio Five
TTITLE6=Lifeline Suite: Kite Flight
TTITLE7=Lifeline Suite: Defrantisity
TTITLE8=Lifeline Suite: Brass Roots
EXTD=YEAR: 1973
EXTT0=
EXTT1=
EXTT2=
EXTT3=
EXTT4=
EXTT5=
EXTT6=
EXTT7=
EXTT8=
PLAYORDER=
